<svg width="33" height="33" viewBox="0 0 33 33" fill="none" xmlns="http://www.w3.org/2000/svg">
<path d="M32.8745 16.4373C32.8745 25.5153 25.5153 32.8745 16.4373 32.8745C7.35922 32.8745 0 25.5153 0 16.4373C0 7.35921 7.35922 0 16.4373 0C25.5153 0 32.8745 7.35921 32.8745 16.4373Z" fill="white"/>
<path d="M9.22763 6.45661H12.1359V24.9638H9.22763V6.45661Z" fill="white"/>
<path d="M22.8802 26.6823C21.5582 26.6823 20.7474 26.0918 20.4478 24.9109C19.9014 25.1224 19.258 25.2282 18.5178 25.2282C17.0901 25.2282 15.9973 24.8228 15.2394 24.012C14.4814 23.2012 14.1025 22.0555 14.1025 20.5749V10.8455C14.1025 9.36488 14.4814 8.2192 15.2394 7.40841C15.9973 6.59762 17.0901 6.19223 18.5178 6.19223C19.9455 6.19223 21.0383 6.59762 21.7962 7.40841C22.5541 8.2192 22.933 9.36488 22.933 10.8455V20.5749C22.933 21.8087 22.6598 22.8222 22.1134 23.6154C22.2192 23.7916 22.3514 23.9062 22.51 23.9591C22.6687 24.012 22.8978 24.0384 23.1974 24.0384H23.6469V26.6823H22.8802ZM18.5178 22.5843C19.5224 22.5843 20.0248 21.9762 20.0248 20.76V10.6604C20.0248 9.4442 19.5224 8.83611 18.5178 8.83611C17.5131 8.83611 17.0108 9.4442 17.0108 10.6604V20.76C17.0108 21.9762 17.5131 22.5843 18.5178 22.5843Z" fill="white"/>
<path d="M32.8745 16.4373C32.8745 25.5153 25.5153 32.8745 16.4373 32.8745C7.35922 32.8745 0 25.5153 0 16.4373C0 7.35921 7.35922 0 16.4373 0C25.5153 0 32.8745 7.35921 32.8745 16.4373Z" fill="black"/>
<path d="M9.22763 6.45661H12.1359V24.9638H9.22763V6.45661Z" fill="white"/>
<path d="M22.8802 26.6823C21.5582 26.6823 20.7474 26.0918 20.4478 24.9109C19.9014 25.1224 19.258 25.2282 18.5178 25.2282C17.0901 25.2282 15.9973 24.8228 15.2394 24.012C14.4814 23.2012 14.1025 22.0555 14.1025 20.5749V10.8455C14.1025 9.36488 14.4814 8.2192 15.2394 7.40841C15.9973 6.59762 17.0901 6.19223 18.5178 6.19223C19.9455 6.19223 21.0383 6.59762 21.7962 7.40841C22.5541 8.2192 22.933 9.36488 22.933 10.8455V20.5749C22.933 21.8087 22.6598 22.8222 22.1134 23.6154C22.2192 23.7916 22.3514 23.9062 22.51 23.9591C22.6687 24.012 22.8978 24.0384 23.1974 24.0384H23.6469V26.6823H22.8802ZM18.5178 22.5843C19.5224 22.5843 20.0248 21.9762 20.0248 20.76V10.6604C20.0248 9.4442 19.5224 8.83611 18.5178 8.83611C17.5131 8.83611 17.0108 9.4442 17.0108 10.6604V20.76C17.0108 21.9762 17.5131 22.5843 18.5178 22.5843Z" fill="white"/>
</svg>
