<svg width="800" height="800" viewBox="0 0 800 800" fill="none" xmlns="http://www.w3.org/2000/svg">
<path d="M359.008 761.435C359.008 785.329 338.459 804.169 315.271 799.195C146.81 763.08 17.4887 620.323 0.178541 444.367C-2.00593 422.162 16.1533 404.022 38.2939 404.022H158.562C180.702 404.022 198.651 422.11 198.651 444.424C198.651 511.366 252.497 565.63 318.919 565.63C341.06 565.63 359.008 583.718 359.008 606.033V761.435Z" fill="#323232"/>
<path d="M599.545 683.944C599.545 715.062 632.739 733.841 656.404 713.858C688.119 687.079 715.66 655.448 737.902 620.096C753.38 595.5 734.273 565.63 705.369 565.63H639.635C617.493 565.63 599.545 583.718 599.545 606.032V683.944Z" fill="#323232"/>
<path d="M399.098 0C501.406 0 594.762 38.6217 665.592 102.187C690.275 124.336 672.64 161.609 639.59 161.609H633.785C570.592 161.609 519.366 213.236 519.366 276.921C519.366 289.991 512.038 301.94 500.44 307.785L497.205 309.414C485.92 315.101 472.634 315.101 461.349 309.414L458.114 307.785C446.516 301.94 439.188 289.991 439.188 276.921C439.188 213.235 387.961 161.609 324.769 161.609H318.92C296.779 161.609 278.83 143.52 278.83 121.207V48.1545C278.83 30.5049 290.157 14.6935 307.207 10.6634C336.715 3.68913 367.48 0 399.098 0Z" fill="#323232"/>
<path d="M55.2758 323.215C29.9306 323.215 10.8641 299.716 18.9212 275.498C42.9977 203.13 86.8482 139.904 144.004 92.3363C166.829 73.3408 198.659 91.3719 198.659 121.204C198.659 188.145 252.504 242.411 318.928 242.411H324.777C343.687 242.411 359.017 257.86 359.017 276.918C359.017 320.595 383.5 360.525 422.266 380.055L425.498 381.687C459.357 398.749 499.21 398.749 533.069 381.687L536.304 380.055C575.067 360.525 599.553 320.595 599.553 276.918C599.553 257.86 614.884 242.411 633.794 242.411H740.407C756.343 242.411 770.939 251.861 776.343 266.968C791.653 309.761 800 355.907 800 404.018C800 420.332 799.038 436.42 797.174 452.226C794.925 471.307 778.276 484.822 759.209 484.822H639.643C573.219 484.822 519.375 539.09 519.375 606.029V759.888C519.375 777.536 508.046 793.349 490.996 797.377C488.314 798.012 485.62 798.618 482.914 799.199C459.726 804.169 439.196 785.325 439.196 761.435V606.029C439.196 539.09 385.348 484.822 318.928 484.822C296.786 484.822 278.837 466.734 278.837 444.42C278.837 377.482 224.991 323.215 158.569 323.215H55.2758Z" fill="#323232"/>
</svg>
