<svg width="229" height="66" viewBox="0 0 229 66" fill="none" xmlns="http://www.w3.org/2000/svg">
<path d="M12.439 60.5559C8.3938 60.5559 5.30933 59.4182 3.1856 57.1427C1.06187 54.8167 0 51.5047 0 47.2067V19.2948C0 14.9967 1.06187 11.71 3.1856 9.43458C5.30933 7.10859 8.3938 5.94559 12.439 5.94559C16.4842 5.94559 19.5687 7.10859 21.6924 9.43458C23.8162 11.71 24.878 14.9967 24.878 19.2948V23.8456H16.9899V18.7638C16.9899 15.2748 15.5488 13.5304 12.6666 13.5304C9.78434 13.5304 8.34324 15.2748 8.34324 18.7638V47.8135C8.34324 51.2519 9.78434 52.9711 12.6666 52.9711C15.5488 52.9711 16.9899 51.2519 16.9899 47.8135V37.4223H12.8182V29.8376H24.878V47.2067C24.878 51.5047 23.8162 54.8167 21.6924 57.1427C19.5687 59.4182 16.4842 60.5559 12.439 60.5559Z" fill="#19191B"/>
<path d="M30.2348 6.70407H42.5979C46.8959 6.70407 50.031 7.71537 52.003 9.73797C53.9751 11.71 54.9611 14.7692 54.9611 18.9155V22.177C54.9611 27.6886 53.1407 31.1776 49.5 32.644V32.7956C51.5227 33.4024 52.9385 34.6413 53.7475 36.5122C54.6071 38.3831 55.0369 40.8861 55.0369 44.0211V53.3503C55.0369 54.8673 55.0875 56.1061 55.1886 57.0669C55.2897 57.9771 55.5426 58.8872 55.9471 59.7974H47.4522C47.1488 58.9378 46.9465 58.1287 46.8454 57.3703C46.7443 56.6118 46.6937 55.2465 46.6937 53.2745V43.566C46.6937 41.1389 46.2892 39.445 45.4801 38.4842C44.7216 37.5235 43.3817 37.0431 41.4602 37.0431H38.578V59.7974H30.2348V6.70407ZM41.6119 29.4584C43.2805 29.4584 44.5194 29.0285 45.3284 28.1689C46.188 27.3093 46.6178 25.8682 46.6178 23.8456V19.7499C46.6178 17.8284 46.2639 16.4378 45.556 15.5782C44.8986 14.7186 43.8368 14.2888 42.3704 14.2888H38.578V29.4584H41.6119Z" fill="#19191B"/>
<path d="M67.2727 6.70407H78.574L87.2206 59.7974H78.8774L77.3604 49.2546V49.4063H67.8795L66.3625 59.7974H58.6261L67.2727 6.70407ZM76.3744 42.2008L72.6579 15.9575H72.5062L68.8655 42.2008H76.3744Z" fill="#19191B"/>
<path d="M91.2684 6.70407H104.011C108.157 6.70407 111.267 7.8165 113.34 10.0414C115.413 12.2662 116.45 15.5277 116.45 19.8257V46.6758C116.45 50.9738 115.413 54.2352 113.34 56.4601C111.267 58.685 108.157 59.7974 104.011 59.7974H91.2684V6.70407ZM103.859 52.2126C105.224 52.2126 106.261 51.8081 106.969 50.9991C107.727 50.19 108.107 48.8753 108.107 47.055V19.4465C108.107 17.6261 107.727 16.3114 106.969 15.5024C106.261 14.6933 105.224 14.2888 103.859 14.2888H99.6116V52.2126H103.859Z" fill="#19191B"/>
<path d="M122.081 6.70407H144.836V14.2888H130.425V28.3206H141.878V35.9054H130.425V52.2126H144.836V59.7974H122.081V6.70407Z" fill="#19191B"/>
<path d="M228.792 32.8886C228.792 51.0525 214.067 65.7772 195.903 65.7772C177.739 65.7772 163.014 51.0525 163.014 32.8886C163.014 14.7247 177.739 0 195.903 0C214.067 0 228.792 14.7247 228.792 32.8886Z" fill="#19191B"/>
<path d="M181.477 12.9188H187.296V49.949H181.477V12.9188Z" fill="#19191B"/>
<path d="M208.794 53.3875C206.149 53.3875 204.527 52.206 203.927 49.8432C202.834 50.2664 201.547 50.478 200.066 50.478C197.209 50.478 195.023 49.6668 193.506 48.0445C191.99 46.4223 191.231 44.1299 191.231 41.1675V21.7002C191.231 18.7378 191.99 16.4455 193.506 14.8232C195.023 13.2009 197.209 12.3898 200.066 12.3898C202.922 12.3898 205.109 13.2009 206.625 14.8232C208.142 16.4455 208.9 18.7378 208.9 21.7002V41.1675C208.9 43.6362 208.353 45.664 207.26 47.251C207.472 47.6037 207.736 47.833 208.054 47.9388C208.371 48.0446 208.829 48.0974 209.429 48.0974H210.328V53.3875H208.794ZM200.066 45.1879C202.076 45.1879 203.081 43.9712 203.081 41.5378V21.3299C203.081 18.8965 202.076 17.6798 200.066 17.6798C198.055 17.6798 197.05 18.8965 197.05 21.3299V41.5378C197.05 43.9712 198.055 45.1879 200.066 45.1879Z" fill="#19191B"/>
<path d="M228.792 32.8886C228.792 51.0525 214.067 65.7772 195.903 65.7772C177.739 65.7772 163.014 51.0525 163.014 32.8886C163.014 14.7247 177.739 0 195.903 0C214.067 0 228.792 14.7247 228.792 32.8886Z" fill="#19191B"/>
<path d="M181.477 12.9188H187.296V49.949H181.477V12.9188Z" fill="white"/>
<path d="M208.794 53.3875C206.149 53.3875 204.527 52.206 203.927 49.8432C202.834 50.2664 201.547 50.478 200.066 50.478C197.209 50.478 195.023 49.6668 193.506 48.0445C191.99 46.4223 191.231 44.1299 191.231 41.1675V21.7002C191.231 18.7378 191.99 16.4455 193.506 14.8232C195.023 13.2009 197.209 12.3898 200.066 12.3898C202.922 12.3898 205.109 13.2009 206.625 14.8232C208.142 16.4455 208.9 18.7378 208.9 21.7002V41.1675C208.9 43.6362 208.353 45.664 207.26 47.251C207.472 47.6037 207.736 47.833 208.054 47.9388C208.371 48.0446 208.829 48.0974 209.429 48.0974H210.328V53.3875H208.794ZM200.066 45.1879C202.076 45.1879 203.081 43.9712 203.081 41.5378V21.3299C203.081 18.8965 202.076 17.6798 200.066 17.6798C198.055 17.6798 197.05 18.8965 197.05 21.3299V41.5378C197.05 43.9712 198.055 45.1879 200.066 45.1879Z" fill="white"/>
</svg>
